<?xml version="1.0" encoding="UTF-8"?>
<svg id="Layer_1" xmlns="http://www.w3.org/2000/svg" version="1.1" viewBox="0 0 779.67 475.78">
  <!-- Generator: Adobe Illustrator 29.8.2, SVG Export Plug-In . SVG Version: 2.1.1 Build 3)  -->
  <defs>
    <style>
      .st0 {
        fill: none;
        stroke: red;
        stroke-miterlimit: 11.34;
        stroke-width: 0px;
      }
    </style>
  </defs>
  <path class="st0" d="M762.94,218.48l-.56,3.34v-3.34h.56M761.28,208.48l-.56,1.67v-1.67h.56M752.92,176.77l4.9,26.15.84,4.48.2,1.08.86,4.6,1.01,5.41,1.16,6.2,2.7,14.41,1.65,8.81.93,9.47.42,4.3.4,4.03.49,4.96,6.05,61.31.04.38-.34,33.93-.15,15-.07,7.2-3.34,18.34-6.66,17.23-.51.81-6.15,9.74-9.45,10-13.4,8.67-5.49,3.55-34.45,14.45-13.33,1.67-6.12-2.22-10.55-12.22-12.22-23.9-3.95-9.75-32.73-80.82-.91-1.91-17.97-37.54-5.56-7.78-12.78-11.11-4.49-1.89-6.06-2.55-6.68-.42v-.8H213.59v.75l-1.31-.1-11.11,3.89-7.77,5.56-13.89,17.23-2.3,4.7-11.03,22.53-36.54,90.27-1.25,3.08-18.88,36.12-7.78,7.23-10,1.67-19.45-5.56-26.67-12.22-16.11-11.11-9.44-10.55-5.04-8.65-2.73-4.69-4.99-13.89-4.45-31.12.56-47.78,5.56-61.12,1.03-5.79,3.79-21.39,6.07-34.25,4.67-26.36,14.57-49.64,3.21-10.92,22.23-51.68v-.05s.11-.21.11-.21l15.44-25.34.86-.86,5.26-5.26,7.77-3.89,2.78-5.56,7.78-6.67,27.22-9.44,7.96-1.2,32.61-4.92h21.67l1.43,1.12,6.35,4.99,114.45-4.99h142.24l90.33,4.3,21.26,1.01,5.1.24,3.34-4.45,4.45-2.22h25l3.75.57.23.03h1.61v.24h0s3.33.51,3.33.51v-.2h2.22v.54l.15.02,2.64.4h0v-.4h.55l.26.52.17.03,3.45.52v-.52h.55l3.34.56v.55h0s4.3.65,4.3.65l7.2,1.09,2.94.45,26.11,8.9,10,8.34,2.78,4.99,7.23,3.34,6.67,6.12,8.11,13.22,6.88,11.22,22.16,50.78.63,1.44,12.52,42.26,1.17,3.94,4.09,13.81M760.16,202.92l-.56,1.67v-1.67h.56M750.16,159.02l-.56,1.67v-1.67h.56M770.17,265.7l-.56,1.67v-1.67h.56M768.5,257.36h.56l-.56,1.67v-1.67M776.83,366.28l-.56,7.77v-7.77h.56M775.75,381.27h.52l-.56,3.34v-3.34h.04M616.81,350.17l.56,2.22-1.11-2.22h.55M42.84,111.79h.56l-.56,2.22v-2.22M7.84,266.82l-.56,1.67v-1.67h.56M8.39,257.92h.56l-.56,2.22v-2.22M2.83,315.16v-6.66h.56l-.56,6.66M663.57,156.55l1.28.09.38.03,1.67-.11,1.64-.33,1.58-.54,1.5-.74,1.39-.93,1.26-1.1,1.1-1.26.93-1.39.74-1.5.54-1.58.2-1,.13-.63.11-1.67-.11-1.67-.33-1.64-.54-1.58-.74-1.5-.93-1.39-1.1-1.26-.32-.28-.93-.82-1.39-.93-1.5-.74-1.58-.54-1.64-.33-1.67-.11-.38.02-1.28.08-1.64.33-1.58.54-1.5.74-1.39.93-1.25,1.1-1.1,1.26-.93,1.39-.74,1.5-.54,1.58-.33,1.64-.11,1.67.11,1.67.13.63.2,1,.54,1.58.74,1.5.93,1.39,1.1,1.26,1.25,1.1,1.39.93,1.5.74,1.58.54,1.64.33M737.08,335.43l-1.71-3.46-.51-1.03-.35-.52-2.44-3.65-3.3-3.76-3.76-3.3-4.16-2.78-4.49-2.21-4.74-1.61-4.91-.98-4.99-.33-4.99.33-4.91.98-3.73,1.27-1.01.34-4.49,2.21-4.16,2.78-3.76,3.3-3.3,3.76-2.78,4.16-.51,1.03-1.71,3.46-1.61,4.74-.98,4.91-.33,4.99.33,4.99.98,4.91,1.61,4.74,2.21,4.49,2.78,4.16,3.3,3.76,3.76,3.3,4.16,2.78,4.49,2.21,1.01.34,3.73,1.27,4.91.98,4.99.33,4.99-.33,4.91-.98,4.74-1.61,4.49-2.21,4.16-2.78,3.76-3.3,3.3-3.76,2.44-3.65.35-.52,1.45-2.94.76-1.55,1.61-4.74.98-4.91.33-4.99-.33-4.99-.98-4.91-1.61-4.74M177.23,255.78v-.48s.07-7.46.07-7.46l.27-29.82.19-21.06.07-8.07-111.68-1.02-.27,29.14-.27,29.82-.07,7.94,100.34.92,11.34.1Z"/>
</svg>