<?xml version="1.0" encoding="UTF-8"?>
<svg id="Layer_1" xmlns="http://www.w3.org/2000/svg" version="1.1" viewBox="0 0 623.62 415.73">
  <!-- Generator: Adobe Illustrator 29.8.2, SVG Export Plug-In . SVG Version: 2.1.1 Build 3)  -->
  <defs>
    <style>
      .st0 {
        stroke-width: .08px;
      }

      .st0, .st1 {
        font-family: ArialMT, Arial;
        font-size: 6.14px;
        isolation: isolate;
      }

      .st0, .st2 {
        stroke: #06f;
        stroke-dasharray: 2.3 2.3;
      }

      .st0, .st2, .st3 {
        fill: none;
        stroke-miterlimit: 6.14;
      }

      .st1 {
        fill: #06f;
      }

      .st2 {
        stroke-width: .08px;
      }

      .st3 {
        stroke: red;
        stroke-width: .15px;
      }
    </style>
  </defs>
  <g id="cut">
    <path id="outer_perimeter" class="st3" d="M74.31,75.51l-16.24,37.76-12.99,44.25-11.37,64.15-4.06,44.66-.41,34.91,3.25,22.74,3.65,10.15,5.68,9.74,6.9,7.71,11.77,8.12,19.49,8.93,14.21,4.06,7.31-1.22,5.68-5.28,13.8-26.39,27.61-68.21,9.74-19.89,10.15-12.59,5.68-4.06,8.12-2.84,5.28.41.41,149.41h220.86l.81,7.71h25.58l.41-157.52,6.5.41,7.71,3.25,9.34,8.12,4.06,5.68,13.8,28.82,26.8,66.18,8.93,17.46,7.71,8.93,4.47,1.62,9.74-1.22,25.17-10.56,13.8-8.93,6.9-7.31,4.87-7.71,4.87-12.59,2.44-13.4.41-41.01-6.09-61.71-9.74-51.97-12.99-43.85-16.65-38.16-10.96-17.86-4.87-4.47-5.28-2.44-2.03-3.65-7.31-6.09-19.08-6.5-26.8-4.06h-18.27l-3.25,1.62-2.44,3.25-85.26-4.06h-103.93l-83.63,3.65-5.68-4.47h-15.83l-29.64,4.47-19.89,6.9-5.68,4.87-2.03,4.06-5.68,2.84-4.47,4.47-11.37,18.67Z"/>
    <path class="st3" d="M397.88,381.23v.81h10.15v-.81h-10.15Z"/>
    <path class="st3" d="M345.1,381.23v.81h50.75v-.81h-50.75Z"/>
    <path class="st3" d="M329.68,381.23v.81h13.8v-.81h-13.8Z"/>
    <path class="st3" d="M321.55,381.23v.81h6.5v-.81h-6.5Z"/>
    <path class="st3" d="M313.43,381.23v.81h2.84v-.81h-2.84Z"/>
    <path class="st3" d="M292.32,381.23v.81h18.27v-.81h-18.27Z"/>
    <path class="st3" d="M272.84,381.23v.81h15.83v-.81h-15.83Z"/>
    <path class="st3" d="M263.9,381.23v.81h4.87v-.81h-4.87Z"/>
    <path class="st3" d="M261.47,381.23v.81h.81l-.41-.81h-.41Z"/>
    <path class="st3" d="M239.95,381.23v.81h19.08v-.81h-19.08Z"/>
    <path class="st3" d="M223.71,381.23v.81h12.18v-.81h-12.18Z"/>
    <path class="st3" d="M218.03,381.23v.81h4.06v-.81h-4.06Z"/>
    <path class="st3" d="M209.5,381.23v.81h5.68v-.81h-5.68Z"/>
    <path class="st3" d="M204.63,381.23v.81h3.25v-.81h-3.25Z"/>
    <path class="st3" d="M190.01,381.23v.81h12.59v-.81h-12.59Z"/>
    <path class="st3" d="M96.23,48.31v1.22h1.22l-.81-1.22h-.41Z"/>
    <path class="st3" d="M451.07,34.51v.81h.81l-.41-.81h-.41Z"/>
    <path class="st3" d="M170.12,34.51v.81h.81l-.41-.81h-.41Z"/>
    <path class="st3" d="M447.01,34.1v.81h1.22v-.81h-1.22Z"/>
    <path class="st3" d="M442.54,33.7v.81h1.22v-.81h-1.22Z"/>
    <path class="st3" d="M177.43,33.7v.81h1.22v-.81h-1.22Z"/>
    <path class="st3" d="M173.77,33.7v.81h.81l-.41-.81h-.41Z"/>
    <path class="st3" d="M438.48,33.29v.81h.81l-.41-.81h-.41Z"/>
    <path class="st3" d="M181.49,33.29v.81h.81l-.41-.81h-.41Z"/>
    <path class="st3" d="M432.8,32.88v.81h1.62v-.81h-1.62Z"/>
    <path class="st3" d="M186.77,32.88v.81h1.22v-.81h-1.22Z"/>
    <path class="st3" d="M127.09,32.88v.81h.81l-.41-.81h-.41Z"/>
    <path class="st3" d="M427.92,32.48v.81h.81l-.41-.81h-.41Z"/>
    <path class="st3" d="M192.04,32.48v.81h2.44v-.81h-2.44Z"/>
    <path class="st3" d="M397.88,31.26v.81h2.03v-.81h-2.03Z"/>
    <path class="st3" d="M220.06,31.26v.81h2.03v-.81h-2.03Z"/>
    <path class="st3" d="M136.42,31.26v.81h.81l-.41-.81h-.41Z"/>
    <path class="st3" d="M484.76,30.85v.81l2.84.41v-.81l-2.44-.41h-.41Z"/>
    <path class="st3" d="M388.14,30.85v.81h1.62v-.81h-1.62Z"/>
    <path class="st3" d="M228.99,30.85v.81h3.65v-.81h-3.65Z"/>
    <path class="st3" d="M138.86,30.85v.81h.81l-.41-.81h-.41Z"/>
    <path class="st3" d="M481.52,30.45v.81h.81l-.41-.81h-.41Z"/>
    <path class="st3" d="M375.55,30.45v.81h.81l-.41-.81h-.41Z"/>
    <path class="st3" d="M242.39,30.45v.81h4.06v-.81h-4.06Z"/>
    <path class="st3" d="M142.11,30.45v.81h.81l-.41-.81h-.41Z"/>
    <path class="st3" d="M477.86,30.04v.81h1.62v-.81h-1.62Z"/>
    <path class="st3" d="M358.91,30.04v.81h3.25v-.81h-3.25Z"/>
    <path class="st3" d="M258.22,30.04v.81h1.62v-.81h-1.62Z"/>
    <path class="st3" d="M144.54,30.04v.81h1.62v-.81h-1.62Z"/>
    <path class="st3" d="M474.21,29.64v.81h1.22v-.81h-1.22Z"/>
    <path class="st3" d="M149.01,29.64v.81h1.22v-.81h-1.22Z"/>
    <path class="st3" d="M468.52,29.23v.81h2.84v-.81h-2.84Z"/>
    <path class="st3" d="M153.07,29.23v.81h2.44v-.81h-2.44Z"/>
    <path class="st3" d="M532.02,252.53c0,7.71-6.25,13.96-13.96,13.96s-13.96-6.25-13.96-13.96,6.25-13.96,13.96-13.96,13.96,6.25,13.96,13.96Z"/>
    <path class="st3" d="M499.03,252.53c0,1.36-1.1,2.46-2.46,2.46s-2.46-1.1-2.46-2.46,1.1-2.46,2.46-2.46,2.46,1.1,2.46,2.46Z"/>
    <path class="st3" d="M541.99,252.53c0,1.36-1.1,2.46-2.46,2.46s-2.46-1.1-2.46-2.46,1.1-2.46,2.46-2.46,2.46,1.1,2.46,2.46Z"/>
    <g>
      <path class="st3" d="M504.55,112.46c0,3.05-2.47,5.52-5.52,5.52s-5.52-2.47-5.52-5.52,2.47-5.52,5.52-5.52,5.52,2.47,5.52,5.52Z"/>
      <path class="st3" d="M485.83,124.74c0,1.19-.96,2.15-2.15,2.15s-2.15-.96-2.15-2.15.96-2.15,2.15-2.15,2.15.96,2.15,2.15Z"/>
      <path class="st3" d="M516.52,124.74c0,1.19-.96,2.15-2.15,2.15s-2.15-.96-2.15-2.15.96-2.15,2.15-2.15,2.15.96,2.15,2.15Z"/>
      <path class="st3" d="M508.23,84.84c0,1.27-1.03,2.3-2.3,2.3h-13.81c-1.27,0-2.3-1.03-2.3-2.3l16.11-2.3c2.3,1.03,1.27,0,2.3,2.3Z"/>
      <path class="st3" d="M508.23,140.08c0,1.27-1.03,2.3-2.3,2.3h-13.81c-1.27,0-2.3-1.03-2.3-2.3l16.11-2.3c2.3,1.03,1.27,0,2.3,2.3Z"/>
      <path class="st3" d="M471.41,121.67c-1.27,0-2.3-1.03-2.3-2.3v-13.81c0-1.27,1.03-2.3,2.3-2.3l2.3,16.11c-1.03,2.3,0,1.27-2.3,2.3Z"/>
      <path class="st3" d="M526.65,121.67c-1.27,0-2.3-1.03-2.3-2.3v-13.81c0-1.27,1.03-2.3,2.3-2.3l2.3,16.11c-1.03,2.3,0,1.27-2.3,2.3Z"/>
    </g>
    <path class="st3" d="M255.34,153.44c0,1.27-1.03,2.3-2.3,2.3h-19.95c-1.27,0-2.3-1.03-2.3-2.3l22.25-2.3c2.3,1.03,1.27,0,2.3,2.3Z"/>
    <path class="st3" d="M255.34,184.13c0,1.27-1.03,2.3-2.3,2.3h-19.95c-1.27,0-2.3-1.03-2.3-2.3l22.25-2.3c2.3,1.03,1.27,0,2.3,2.3Z"/>
  </g>
  <g id="score">
    <path class="st2" d="M436.04,382.04v2.03l.41-2.03h-.41Z"/>
    <path class="st2" d="M436.04,373.92v2.03l.41-2.03h-.41Z"/>
    <path class="st2" d="M92.17,373.11h.41-.41Z"/>
    <path class="st2" d="M529.83,370.67h.41-.41Z"/>
    <path class="st2" d="M527.8,370.67h.41-.41Z"/>
    <path class="st2" d="M97.85,370.67h.41-.41Z"/>
    <path class="st2" d="M91.76,370.67h.41-.41Z"/>
    <path class="st2" d="M534.7,368.64l-.41,1.62.81-1.22-.41-.41Z"/>
    <path class="st2" d="M436.04,367.83v2.03l.41-2.03h-.41Z"/>
    <path class="st2" d="M436.04,364.98v1.22l.41-1.22h-.41Z"/>
    <path class="st2" d="M414.12,359.3h.41-.41Z"/>
    <path class="st2" d="M399.1,359.3h.41-.41Z"/>
    <path class="st2" d="M389.76,359.3h.41-.41Z"/>
    <path class="st2" d="M379.21,359.3h.41-.41Z"/>
    <path class="st2" d="M373.12,359.3h.41-.41Z"/>
    <path class="st2" d="M367.03,359.3h.41-.41Z"/>
    <path class="st2" d="M360.53,359.3h.41-.41Z"/>
    <path class="st2" d="M351.6,359.3h.41-.41Z"/>
    <path class="st2" d="M340.64,359.3h.41-.41Z"/>
    <path class="st2" d="M333.33,359.3h.41-.41Z"/>
    <path class="st2" d="M325.61,359.3h.41-.41Z"/>
    <path class="st2" d="M319.93,359.3h.41-.41Z"/>
    <path class="st2" d="M304.1,359.3h.41-.41Z"/>
    <path class="st2" d="M292.32,359.3h.41-.41Z"/>
    <path class="st2" d="M283.8,359.3h.41-.41Z"/>
    <path class="st2" d="M274.87,359.3h.41-.41Z"/>
    <path class="st2" d="M267.56,359.3h.41-.41Z"/>
    <path class="st2" d="M262.69,359.3h.41-.41Z"/>
    <path class="st2" d="M252.54,359.3h.41-.41Z"/>
    <path class="st2" d="M240.76,359.3h.41-.41Z"/>
    <path class="st2" d="M232.64,359.3h.41-.41Z"/>
    <path class="st2" d="M221.28,359.3h.41-.41Z"/>
    <path class="st2" d="M213.56,359.3h.41-.41Z"/>
    <path class="st2" d="M210.31,359.3h.41-.41Z"/>
    <path class="st2" d="M205.85,359.3h.41-.41Z"/>
    <path class="st2" d="M418.99,358.9l-.81.81,1.22-.81h-.41Z"/>
    <path class="st2" d="M91.76,358.49l-1.22,1.62-.81,4.06,2.44-5.68h-.41Z"/>
    <path class="st2" d="M527.8,358.08l.41,2.03,2.44,4.06.41-.41-2.84-5.68h-.41Z"/>
    <path class="st2" d="M436.04,354.02v2.44l.41-2.44h-.41Z"/>
    <path class="st2" d="M95.42,346.72l-1.22,5.28,1.62-5.28h-.41Z"/>
    <path class="st2" d="M523.74,346.31l1.62,5.28v-2.44l-1.22-2.84h-.41Z"/>
    <path class="st2" d="M436.04,334.54v4.06l.41-4.06h-.41Z"/>
    <path class="st2" d="M99.48,334.54l-1.62,5.28,2.03-5.28h-.41Z"/>
    <path class="st2" d="M520.08,334.13l1.62,4.87.41-.41-1.62-4.47h-.41Z"/>
    <path class="st2" d="M34.93,327.23l.81,2.03.41-1.22-.81-.81h-.41Z"/>
    <path class="st2" d="M102.73,322.76l-1.22,4.87.81-.41.81-4.47h-.41Z"/>
    <path class="st2" d="M516.43,321.95l1.62,5.68v-2.84l-1.22-2.84h-.41Z"/>
    <path class="st2" d="M33.3,320.73v1.22l.41-1.22h-.41Z"/>
    <path class="st2" d="M513.18,310.18v2.84l1.22.81.41,2.03v-2.84l-1.22-2.84h-.41Z"/>
    <path class="st2" d="M106.79,310.18l-2.03,5.68h.81l1.62-5.28-.41-.41Z"/>
    <path class="st2" d="M591.13,308.15v1.22l.41-1.22h-.41Z"/>
    <path class="st2" d="M593.97,305.71v2.44l.41-2.44h-.41Z"/>
    <path class="st2" d="M488.82,305.31l.81,2.03.41-.81-.81-1.22h-.41Z"/>
    <path class="st2" d="M30.87,303.28v2.84l.41-2.84h-.41Z"/>
    <path class="st2" d="M509.53,298l1.62,5.28-1.22-5.28h-.41Z"/>
    <path class="st2" d="M110.44,298l-2.03,5.68,1.22-.81.81-4.47v-.41Z"/>
    <path class="st2" d="M539.17,295.15h.41-.41Z"/>
    <path class="st2" d="M594.38,294.75v5.68l.41-5.68h-.41Z"/>
    <path class="st2" d="M591.94,291.91v3.25l.41-3.25h-.41Z"/>
    <path class="st2" d="M591.94,289.06v1.22l.41-1.22h-.41Z"/>
    <path class="st2" d="M114.09,286.22l-1.62,5.28,2.03-5.28h-.41Z"/>
    <path class="st2" d="M505.87,285.82l1.62,5.28-1.22-5.28h-.41Z"/>
    <path class="st2" d="M477.46,282.98l.81,1.62-.41-1.62h-.41Z"/>
    <path class="st2" d="M118.15,273.64l-2.03,5.68.81-.41,1.62-5.28h-.41Z"/>
    <path class="st2" d="M502.22,273.23l1.62,5.28-1.22-5.28h-.41Z"/>
    <path class="st2" d="M30.87,272.42v2.44l.41-2.44h-.41Z"/>
    <path class="st2" d="M30.87,268.77v2.03l.41-2.03h-.41Z"/>
    <path class="st2" d="M537.95,268.36h.41-.41Z"/>
    <path class="st2" d="M528.2,268.36h.41-.41Z"/>
    <path class="st2" d="M591.13,263.89v2.03l.41-2.03h-.41Z"/>
    <path class="st2" d="M122.21,261.86l-1.62,5.28,2.03-5.28h-.41Z"/>
    <path class="st2" d="M498.16,261.46l1.62,4.87.41-.81-1.63-4.06h-.41Z"/>
    <path class="st2" d="M29.24,252.53v4.87l.41-4.87h-.41Z"/>
    <path class="st2" d="M126.68,249.68l-2.03,5.68,2.44-5.28-.41-.41Z"/>
    <path class="st2" d="M494.1,249.28v2.03l1.62,3.25.41-.81-1.63-4.06-.41-.41Z"/>
    <path class="st2" d="M510.75,248.87v1.62l.41-1.62h-.41Z"/>
    <path class="st2" d="M32.08,248.06v2.44l.41-2.44h-.41Z"/>
    <path class="st2" d="M510.75,242.38v1.62l.41-1.62h-.41Z"/>
    <path class="st2" d="M555.41,239.94v.41-.41Z"/>
    <path class="st2" d="M131.14,237.91l-2.03,5.28,2.44-5.28h-.41Z"/>
    <path class="st2" d="M589.1,237.1v.41-.41Z"/>
    <path class="st2" d="M489.23,237.1l2.03,5.28-1.62-5.28h-.41Z"/>
    <path class="st2" d="M436.45,232.63h.41-.41Z"/>
    <path class="st2" d="M428.74,232.63h.41-.41Z"/>
    <path class="st2" d="M421.43,232.63h.41-.41Z"/>
    <path class="st2" d="M417.37,232.63h.41-.41Z"/>
    <path class="st2" d="M411.69,232.63h.41-.41Z"/>
    <path class="st2" d="M407.63,232.63h.41-.41Z"/>
    <path class="st2" d="M401.94,232.63h.41-.41Z"/>
    <path class="st2" d="M378.8,232.63h.41-.41Z"/>
    <path class="st2" d="M375.55,232.63h.41-.41Z"/>
    <path class="st2" d="M370.27,232.63h.41-.41Z"/>
    <path class="st2" d="M365.81,232.63h.41-.41Z"/>
    <path class="st2" d="M362.97,232.63h.41-.41Z"/>
    <path class="st2" d="M352.41,232.63h.41-.41Z"/>
    <path class="st2" d="M341.04,232.63h.41-.41Z"/>
    <path class="st2" d="M324.8,232.63h.41-.41Z"/>
    <path class="st2" d="M310.19,232.63h.41-.41Z"/>
    <path class="st2" d="M295.17,232.63h.41-.41Z"/>
    <path class="st2" d="M289.48,232.63h.41-.41Z"/>
    <path class="st2" d="M285.42,232.63h.41-.41Z"/>
    <path class="st2" d="M278.11,232.63h.41-.41Z"/>
    <path class="st2" d="M268.78,232.63h.41-.41Z"/>
    <path class="st2" d="M261.47,232.63h.41-.41Z"/>
    <path class="st2" d="M228.99,232.63h.41-.41Z"/>
    <path class="st2" d="M225.74,232.63h.41-.41Z"/>
    <path class="st2" d="M223.71,232.63h.41-.41Z"/>
    <path class="st2" d="M221.68,232.63h.41-.41Z"/>
    <path class="st2" d="M210.72,232.63h.41-.41Z"/>
    <path class="st2" d="M206.66,232.63h.41-.41Z"/>
    <path class="st2" d="M195.7,232.63h.41-.41Z"/>
    <path class="st2" d="M189.2,232.63h.41-.41Z"/>
    <path class="st2" d="M185.14,232.63h.41-.41Z"/>
    <path class="st2" d="M587.89,228.17v1.62l.41-1.62h-.41Z"/>
    <path class="st2" d="M136.02,226.14l-2.44,5.28,1.22-.81,1.62-4.47h-.41Z"/>
    <path class="st2" d="M484.36,225.33l2.03,5.28v-2.03l-.81-.41-.81-2.44-.41-.41Z"/>
    <path class="st2" d="M587.07,222.48v1.22l.41-1.22h-.41Z"/>
    <path class="st2" d="M34.93,222.08v2.84l.41-2.84h-.41Z"/>
    <path class="st2" d="M32.49,222.08v1.22l.41-1.22h-.41Z"/>
    <path class="st2" d="M589.51,221.26v1.22l.41-1.22h-.41Z"/>
    <path class="st2" d="M537.95,221.26h.41-.41Z"/>
    <path class="st2" d="M527.8,221.26h.41-.41Z"/>
    <path class="st2" d="M33.3,215.58v1.62l.41-1.62h-.41Z"/>
    <path class="st2" d="M588.7,215.17v1.22l.41-1.22h-.41Z"/>
    <path class="st2" d="M141.3,214.36l-2.44,4.47h.81l1.62-4.06v-.41Z"/>
    <path class="st2" d="M479.49,213.96l-.41.41,2.03,4.87.81-.41-2.03-4.47-.41-.41Z"/>
    <path class="st2" d="M214.78,213.14h.41-.41Z"/>
    <path class="st2" d="M36.55,211.52v1.22l.41-1.22h-.41Z"/>
    <path class="st2" d="M585.45,209.49v1.62l.41-1.62h-.41Z"/>
    <path class="st2" d="M584.64,204.21v1.62l.41-1.62h-.41Z"/>
    <path class="st2" d="M473.8,203l2.44,4.87.41-.41-2.44-4.47h-.41Z"/>
    <path class="st2" d="M146.98,203l-2.84,5.28,1.62-1.22,1.62-4.06h-.41Z"/>
    <path class="st2" d="M36.14,198.53v.41-.41Z"/>
    <path class="st2" d="M467.3,191.22l3.25,5.68.41-.41-3.25-5.28h-.41Z"/>
    <path class="st2" d="M584.23,186.76v2.44l.41-2.44h-.41Z"/>
    <path class="st2" d="M239.14,181.48v2.44l.41-2.03-.41-.41Z"/>
    <path class="st2" d="M583.01,179.45v1.22l.41-1.22h-.41Z"/>
    <path class="st2" d="M175.4,179.45v.41-.41Z"/>
    <path class="st2" d="M582.2,175.39v1.22l.41-1.22h-.41Z"/>
    <path class="st2" d="M43.05,173.36v1.22l.41-1.22h-.41Z"/>
    <path class="st2" d="M386.51,168.08l-.81,1.62,1.22-1.62h-.41Z"/>
    <path class="st2" d="M488.01,166.05h.41-.41Z"/>
    <path class="st2" d="M89.51,122.87h.41-.41Z"/>
    <path class="st2" d="M97.63,120.43h.41-.41Z"/>
    <path class="st2" d="M93.57,120.43h.41-.41Z"/>
    <path class="st2" d="M47.92,151.44v1.22l.41-1.22h-.41Z"/>
    <path class="st2" d="M415.34,148.19h.41-.41Z"/>
    <path class="st2" d="M206.25,148.19h.41-.41Z"/>
    <path class="st2" d="M108.18,110.28v2.03l.41-2.03h-.41Z"/>
    <path class="st2" d="M412.9,145.75h.41-.41Z"/>
    <path class="st2" d="M574.89,143.31v1.22l.41-1.22h-.41Z"/>
    <path class="st2" d="M83.82,105.41v1.62l.41-1.62h-.41Z"/>
    <path class="st2" d="M81.39,102.97v2.03l.41-2.03h-.41Z"/>
    <path class="st2" d="M107.37,101.76v2.44l.41-2.44h-.41Z"/>
    <path class="st2" d="M527.39,134.38h.41-.41Z"/>
    <path class="st2" d="M449.44,134.38h.41-.41Z"/>
    <path class="st2" d="M376.77,133.57v.81l6.09-.41-5.68-.41h-.41Z"/>
    <path class="st2" d="M364.59,133.57l-.41.41,4.87.41,1.22-.81h-5.68Z"/>
    <path class="st2" d="M352,133.57v.81l6.09-.41-5.69-.41h-.41Z"/>
    <path class="st2" d="M339.42,133.57v.81l6.09-.41-5.68-.41h-.41Z"/>
    <path class="st2" d="M326.43,133.57h.41-.41Z"/>
    <path class="st2" d="M313.84,133.57l5.68.81v-.81h-5.68Z"/>
    <path class="st2" d="M301.66,133.57l-.41.81,5.68-.41-4.87-.41h-.41Z"/>
    <path class="st2" d="M288.67,133.57l3.65.81,2.44-.81h-6.09Z"/>
    <path class="st2" d="M276.49,133.57v.81l5.68-.41-5.28-.41h-.41Z"/>
    <path class="st2" d="M263.9,133.57v.81h5.68v-.81h-5.68Z"/>
    <path class="st2" d="M251.32,133.57l.41.81h5.68v-.81h-6.09Z"/>
    <path class="st2" d="M238.73,133.57v.81l6.09-.41-5.68-.41h-.41Z"/>
    <path class="st2" d="M394.23,132.76l-4.47.81v.81l6.09-1.22-1.22-.41h-.41Z"/>
    <path class="st2" d="M226.15,132.76l5.68,1.22-.81-.81-4.47-.41h-.41Z"/>
    <path class="st2" d="M124.02,92.82h.41-.41Z"/>
    <path class="st2" d="M65.96,92.82h.41-.41Z"/>
    <path class="st2" d="M54.41,127.89v2.03l.41-2.03h-.41Z"/>
    <path class="st2" d="M407.22,127.48l-4.47,2.44-.81,1.22,4.87-2.44.81-1.22h-.41Z"/>
    <path class="st2" d="M214.37,127.08l-.41.41,5.69,3.25.41-.41-5.28-2.84-.41-.41Z"/>
    <path class="st2" d="M91.76,120.58v2.44l.41-2.44h-.41Z"/>
    <path class="st2" d="M468.52,118.55v1.62l.41-1.62h-.41Z"/>
    <path class="st2" d="M415.74,118.55l-2.84,4.47,1.22-.81,2.03-3.66h-.41Z"/>
    <path class="st2" d="M206.66,118.55l3.25,4.87.41-.41-3.25-4.47h-.41Z"/>
    <path class="st2" d="M103.31,79.43v2.44l.41-2.44h-.41Z"/>
    <path class="st2" d="M439.29,116.11v4.06l.41-4.06h-.41Z"/>
    <path class="st2" d="M540.79,115.3v1.62l.41-1.62h-.41Z"/>
    <path class="st2" d="M470.96,114.9v4.06l.41-4.06h-.41Z"/>
    <path class="st2" d="M509.93,114.49v2.03l.41-2.03h-.41Z"/>
    <path class="st2" d="M91.76,113.27v3.25l.41-3.25h-.41Z"/>
    <path class="st2" d="M58.47,108.8v1.62l.41-1.62h-.41Z"/>
    <path class="st2" d="M420.21,106.37l-.81.81-1.22,5.28.81-.41,1.62-5.28-.41-.41Z"/>
    <path class="st2" d="M202.6,106.37l-.41.81,1.22,4.47.81.81.41-.41-.81-.81-.81-4.47-.41-.41Z"/>
    <path class="st2" d="M117.52,68.46h.41-.41Z"/>
    <path class="st2" d="M488.01,100.28h.41-.41Z"/>
    <path class="st2" d="M146.17,94.6v2.44l.41-2.44h-.41Z"/>
    <path class="st2" d="M199.35,94.19l1.22,5.69v-4.87l-.81-.81h-.41Z"/>
    <path class="st2" d="M422.65,93.78l-.81,5.28,1.22-5.28h-.41Z"/>
    <path class="st2" d="M117.75,93.38v1.62l.41-1.62h-.41Z"/>
    <path class="st2" d="M120.18,91.35v2.03l.41-2.03h-.41Z"/>
    <path class="st2" d="M146.98,87.29v2.44l.41-2.44h-.41Z"/>
    <path class="st2" d="M505.87,86.48v1.22l.41-1.22h-.41Z"/>
    <path class="st2" d="M119.37,85.26v1.62l.41-1.62h-.41Z"/>
    <path class="st2" d="M116.53,85.26l.41,1.22v-1.22h-.41Z"/>
    <path class="st2" d="M144.54,83.23v1.22l.41-1.22h-.41Z"/>
    <path class="st2" d="M196.92,82.01l1.22,5.68-.81-5.68h-.41Z"/>
    <path class="st2" d="M425.49,81.6l-1.22,5.28,1.62-5.28h-.41Z"/>
    <path class="st2" d="M123.84,75.11h.41-.41Z"/>
    <path class="st2" d="M487.61,70.24h.41-.41Z"/>
    <path class="st2" d="M194.48,69.83l.81,5.28.41-2.03-.81-.81v-2.03l-.41-.41Z"/>
    <path class="st2" d="M427.92,69.42l-.81,5.68,1.22-5.68h-.41Z"/>
    <path class="st2" d="M489.23,68.61h.41-.41Z"/>
    <path class="st2" d="M171.34,68.61v1.62l.41-1.62h-.41Z"/>
    <path class="st2" d="M178.65,66.18v1.22l.41-1.22h-.41Z"/>
    <path class="st2" d="M444.57,62.93l-.41,1.62.41.41.41-1.62-.41-.41Z"/>
    <path class="st2" d="M180.27,61.3v1.22l.41-1.22h-.41Z"/>
    <path class="st2" d="M430.77,57.24l-1.22,5.28,1.63-5.28h-.41Z"/>
    <path class="st2" d="M191.23,57.24l1.22,5.28.41-.81-1.22-4.47h-.41Z"/>
    <path class="st2" d="M173.37,52.37h.41-.41Z"/>
    <path class="st2" d="M170.12,52.37h.41-.41Z"/>
    <path class="st2" d="M518.05,45.47v.81h.81l-.41-.81h-.41Z"/>
    <path class="st2" d="M432.8,45.07l-.81,5.28,1.62-4.47-.41-.81h-.41Z"/>
    <path class="st2" d="M100.29,45.07l1.62.41.41.81,1.22-.41-2.84-.81h-.41Z"/>
    <path class="st2" d="M188.8,44.66l-.41.81,1.22,4.87.41-2.03-.81-1.22v-2.03l-.41-.41Z"/>
    <path class="st2" d="M120.59,44.25h.41-.41Z"/>
    <path class="st2" d="M495.72,43.44h.41-.41Z"/>
    <path class="st2" d="M500.6,41.82h.41-.41Z"/>
    <path class="st2" d="M496.54,41.01h.41-.41Z"/>
    <path class="st2" d="M483.95,41.01h.41-.41Z"/>
    <path class="st2" d="M131.96,39.38h.41-.41Z"/>
    <path class="st2" d="M463.65,37.76h.41-.41Z"/>
    <path class="st2" d="M157.53,37.76h.41-.41Z"/>
    <path class="st2" d="M113.28,37.76h.41-.41Z"/>
    <path class="st2" d="M457.56,36.95h.41-.41Z"/>
    <path class="st2" d="M162.41,36.95h.41-.41Z"/>
    <path class="st2" d="M168.5,36.13h.41-.41Z"/>
    <path class="st2" d="M156.72,35.32h.41-.41Z"/>
    <path class="st2" d="M459.19,34.51h.41-.41Z"/>
    <path class="st2" d="M434.83,34.51l-.41,3.65.81-2.44,2.03-.81-2.03-.41h-.41Z"/>
    <path class="st2" d="M162,34.51h.41-.41Z"/>
    <path class="st2" d="M126.68,34.51h.41-.41Z"/>
    <path class="st2" d="M186.36,34.1l-.41.81,1.22,3.25.41-1.62-.81-.81v-1.62h-.41Z"/>
    <path class="st2" d="M453.5,33.7h.41-.41Z"/>
    <path class="st2" d="M167.28,33.7h.41-.41Z"/>
    <path class="st2" d="M500.19,32.88h.41-.41Z"/>
    <path class="st2" d="M444.57,32.88h.41-.41Z"/>
    <path class="st2" d="M174.99,32.88h.41-.41Z"/>
    <path class="st2" d="M121.4,32.88h.41-.41Z"/>
    <path class="st2" d="M474.21,31.26h.41-.41Z"/>
    <path class="st2" d="M352.82,31.26h.41-.41Z"/>
    <path class="st2" d="M319.93,31.26h.41-.41Z"/>
    <path class="st2" d="M317.49,31.26h.41-.41Z"/>
    <path class="st2" d="M298.82,31.26h.41-.41Z"/>
    <path class="st2" d="M287.45,31.26h.41-.41Z"/>
    <path class="st2" d="M262.28,31.26h.41-.41Z"/>
    <path class="st2" d="M146.98,31.26h.41-.41Z"/>
    <path class="st2" d="M454.72,30.45h.41-.41Z"/>
    <path class="st2" d="M156.72,30.45h.41-.41Z"/>
    <path class="st2" d="M385.3,29.64h.41-.41Z"/>
    <path class="st2" d="M382.86,29.64h.41-.41Z"/>
    <path class="st2" d="M236.3,29.64h.41-.41Z"/>
    <path class="st2" d="M232.64,29.64h.41-.41Z"/>
    <path class="st2" d="M139.67,29.64h.41-.41Z"/>
    <path class="st2" d="M477.46,28.82h.41-.41Z"/>
    <path class="st2" d="M349.16,28.82h.41-.41Z"/>
    <path class="st2" d="M341.04,28.82h.41-.41Z"/>
    <path class="st2" d="M264.31,28.82h.41-.41Z"/>
    <path class="st2" d="M260.25,28.82h.41-.41Z"/>
    <path class="st2" d="M465.27,28.01h.41-.41Z"/>
    <path class="st2" d="M462.43,28.01h.41-.41Z"/>
    <path class="st2" d="M453.91,28.01h.41-.41Z"/>
    <path class="st2" d="M165.65,28.01h.41-.41Z"/>
    <path class="st2" d="M162.41,28.01h.41-.41Z"/>
    <path class="st2" d="M152.66,28.01h.41-.41Z"/>
    <path class="st2" d="M94.39,82.8c0,4.24-3.44,7.67-7.67,7.67s-7.67-3.44-7.67-7.67,3.44-7.67,7.67-7.67,7.67,3.43,7.67,7.67Z"/>
    <path class="st2" d="M115.87,82.8c0,4.24-3.44,7.67-7.67,7.67s-7.67-3.44-7.67-7.67,3.44-7.67,7.67-7.67,7.67,3.43,7.67,7.67Z"/>
    <path class="st2" d="M137.35,82.8c0,4.24-3.44,7.67-7.67,7.67s-7.67-3.44-7.67-7.67,3.44-7.67,7.67-7.67,7.67,3.43,7.67,7.67Z"/>
    <path class="st2" d="M158.83,82.8c0,4.24-3.44,7.67-7.67,7.67s-7.67-3.44-7.67-7.67,3.44-7.67,7.67-7.67,7.67,3.43,7.67,7.67Z"/>
    <path class="st2" d="M94.39,104.28c0,4.24-3.44,7.67-7.67,7.67s-7.67-3.44-7.67-7.67,3.44-7.67,7.67-7.67,7.67,3.43,7.67,7.67Z"/>
    <path class="st2" d="M115.87,104.28c0,4.24-3.44,7.67-7.67,7.67s-7.67-3.44-7.67-7.67,3.44-7.67,7.67-7.67,7.67,3.43,7.67,7.67Z"/>
    <path class="st2" d="M137.35,104.28c0,4.24-3.44,7.67-7.67,7.67s-7.67-3.44-7.67-7.67,3.44-7.67,7.67-7.67,7.67,3.43,7.67,7.67Z"/>
    <path class="st2" d="M158.83,104.28c0,4.24-3.44,7.67-7.67,7.67s-7.67-3.44-7.67-7.67,3.44-7.67,7.67-7.67,7.67,3.43,7.67,7.67Z"/>
    <path class="st2" d="M94.39,125.76c0,4.24-3.44,7.67-7.67,7.67s-7.67-3.44-7.67-7.67,3.44-7.67,7.67-7.67,7.67,3.43,7.67,7.67Z"/>
    <path class="st2" d="M115.87,125.76c0,4.24-3.44,7.67-7.67,7.67s-7.67-3.44-7.67-7.67,3.44-7.67,7.67-7.67,7.67,3.43,7.67,7.67Z"/>
    <path class="st2" d="M137.35,125.76c0,4.24-3.44,7.67-7.67,7.67s-7.67-3.44-7.67-7.67,3.44-7.67,7.67-7.67,7.67,3.43,7.67,7.67Z"/>
    <path class="st2" d="M158.83,125.76c0,4.24-3.44,7.67-7.67,7.67s-7.67-3.44-7.67-7.67,3.44-7.67,7.67-7.67,7.67,3.43,7.67,7.67Z"/>
    <text class="st1" transform="translate(38.91 104.13)"><tspan x="0" y="0">Qwiic Joystick</tspan></text>
    <text class="st0" transform="translate(38.91 104.13)"><tspan x="0" y="0">Qwiic Joystick</tspan></text>
    <text class="st1" transform="translate(231.26 128.89)"><tspan x="0" y="0">Rotary Enc</tspan></text>
    <text class="st0" transform="translate(231.26 128.89)"><tspan x="0" y="0">Rotary Enc</tspan></text>
    <text class="st1" transform="translate(231.13 141.17)"><tspan x="0" y="0">MPR121</tspan></text>
    <text class="st0" transform="translate(231.13 141.17)"><tspan x="0" y="0">MPR121</tspan></text>
    <text class="st1" transform="translate(92.5 138.04)"><tspan x="0" y="0">Touch Pads (score)</tspan></text>
    <text class="st0" transform="translate(92.5 138.04)"><tspan x="0" y="0">Touch Pads (score)</tspan></text>
  </g>
</svg>